<mxfile host="app.diagrams.net" modified="2024-10-07T07:33:45.419Z" agent="Mozilla/5.0 (Windows NT 10.0; Win64; x64) AppleWebKit/537.36 (KHTML, like Gecko) Chrome/129.0.0.0 Safari/537.36 Edg/129.0.0.0" version="24.4.10" etag="YfATMgPN5XTSrnAdOcXu" type="github">
  <diagram name="第 1 页" id="Kc7VSqoShlpPIz0hFE4W">
    <mxGraphModel>
      <root>
        <mxCell id="0" />
        <mxCell id="1" parent="0" />
      </root>
    </mxGraphModel>
  </diagram>
</mxfile>
